<svg xmlns="http://www.w3.org/2000/svg" fill-rule="evenodd" clip-rule="evenodd" image-rendering="optimizeQuality" shape-rendering="geometricPrecision" text-rendering="geometricPrecision" viewBox="0 0 509 509"><g fill-rule="nonzero"><path fill="#0866FF" d="M509 255a254 254 0 1 0-316 247V332h-52v-77h52v-34c0-87 39-127 124-127 16 0 44 3 56 7v70l-30-1c-42 0-58 16-58 57v28h83l-14 77h-69v175a255 255 0 0 0 224-252z"/><path fill="#fff" d="m354 332 14-78h-83v-27c0-41 16-57 58-57l30 1v-70c-12-4-40-7-56-7-85 0-124 40-124 127v34h-52v77h52v170a255 255 0 0 0 92 5V332h69z"/></g></svg>