<svg xmlns="http://www.w3.org/2000/svg" width="64" height="64" fill-rule="evenodd" clip-rule="evenodd" image-rendering="optimizeQuality" shape-rendering="geometricPrecision" text-rendering="geometricPrecision" viewBox="0 0 640 640"><path d="M320 8a320 320 0 0 0-101 624c16 3 22-7 22-16l-1-59c-89 19-108-38-108-38-14-37-35-47-35-47-29-20 2-19 2-19 32 2 49 33 49 33 29 48 75 34 93 26 3-21 11-35 21-43-71-8-146-35-146-158 0-35 12-63 33-86-4-8-14-40 3-84 0 0 27-9 88 32a307 307 0 0 1 160 0c61-41 88-32 88-32 17 44 7 76 3 84 21 23 33 51 33 86 0 123-75 150-146 158 11 10 22 29 22 59l-1 88c0 9 6 19 22 15A320 320 0 0 0 320 8z"/></svg>