<svg xmlns="http://www.w3.org/2000/svg" xmlns:xlink="http://www.w3.org/1999/xlink" viewBox="0 0 132 132"><defs><radialGradient xlink:href="#a" id="c" cx="158.4" cy="578.1" r="65" fx="158.4" fy="578.1" gradientTransform="matrix(0 -1.98198 1.8439 0 -1031 454)" gradientUnits="userSpaceOnUse"/><radialGradient xlink:href="#b" id="d" cx="147.7" cy="473.5" r="65" fx="147.7" fy="473.5" gradientTransform="matrix(.17394 .86872 -3.5818 .71718 1648 -458)" gradientUnits="userSpaceOnUse"/><linearGradient id="b"><stop offset="0" stop-color="#3771c8"/><stop offset=".1" stop-color="#3771c8"/><stop offset="1" stop-color="#60f" stop-opacity="0"/></linearGradient><linearGradient id="a"><stop offset="0" stop-color="#fd5"/><stop offset=".1" stop-color="#fd5"/><stop offset=".5" stop-color="#ff543e"/><stop offset="1" stop-color="#c837ab"/></linearGradient></defs><path fill="url(#c)" d="M65 0H28c-5 1-9 1-12 3s-6 3-8 6c-4 4-6 9-7 16L0 44v58l3 12c4 7 10 13 18 15l9 1a2913 2913 0 0 0 79-1c8-2 14-8 18-15l3-12a2758 2758 0 0 0 0-74c-1-5-1-9-3-12s-3-6-6-8c-4-4-9-6-16-7L86 0H65z" transform="translate(1 1)"/><path fill="url(#d)" d="M65 0H28c-5 1-9 1-12 3s-6 3-8 6c-4 4-6 9-7 16L0 44v58l3 12c4 7 10 13 18 15l9 1a2913 2913 0 0 0 79-1c8-2 14-8 18-15l3-12a2758 2758 0 0 0 0-74c-1-5-1-9-3-12s-3-6-6-8c-4-4-9-6-16-7L86 0H65z" transform="translate(1 1)"/><path fill="#fff" d="M66 18a341 341 0 0 0-31 3c-4 1-6 2-9 5s-4 5-5 9c-2 3-2 6-3 11a345 345 0 0 0 3 51c1 4 2 6 5 9s5 4 9 5c3 2 6 2 11 3a341 341 0 0 0 51-3c4-1 6-2 9-5s4-5 5-9c2-3 2-6 3-11a343 343 0 0 0-3-51c-1-4-2-6-5-9s-5-4-9-5c-3-2-6-2-11-3H66zm-4 9h4a336 336 0 0 1 28 2c3 0 4 1 6 3s3 3 3 6a334 334 0 0 1 0 57c0 2-1 3-3 5-2 1-3 3-6 3a334 334 0 0 1-57 0c-2 0-3-2-5-3-2-2-3-3-3-6a336 336 0 0 1 0-57c0-2 1-3 3-5s3-3 6-3c1-1 4-2 9-2h15zm30 8a6 6 0 1 0 0 11 6 6 0 0 0 0-11zm-26 6a25 25 0 1 0 0 50 25 25 0 0 0 0-50zm0 9a16 16 0 1 1 0 32 16 16 0 0 1 0-32z"/></svg>